<svg xmlns="http://www.w3.org/2000/svg" width="346.432" height="27.968" viewBox="0 0 346.432 27.968">
  <path id="パス_5" data-name="パス 5" d="M17.632-1.088c-.032-1.664-.064-3.456-.064-5.28,0-4.608.1-9.312.1-12.224,0-.96,0-1.728-.032-2.24-.1-1.7-1.216-2.592-3.168-2.592-.7,0-.992,0-1.664.032a.987.987,0,0,0-.928,1.024.923.923,0,0,0,.928.992h.1a7.242,7.242,0,0,1,.8-.032c1.408,0,1.792.384,1.888,1.6.032.544.064,1.856.064,3.552,0,4.576-.128,12.064-.16,15.232v.032a.956.956,0,0,0,1.024.96,1.051,1.051,0,0,0,1.12-1.024ZM56.416-3.264c.064-1.728.1-5.024.1-8.352,0-3.008-.032-6.048-.1-8.032-.064-2.08-1.472-3.488-3.872-3.584-1.12-.032-2.56-.064-4-.064-1.792,0-3.584.032-4.8.064-2.592.1-3.872,1.568-3.936,3.584-.064,2.176-.1,5.088-.1,7.968,0,3.232.032,6.464.1,8.576C39.872-.9,41.344.448,43.872.544c1.312.064,2.752.064,4.224.064s2.976,0,4.384-.064A3.732,3.732,0,0,0,56.416-3.264ZM41.408-13.056c0-2.4.032-4.64.1-6.112.064-1.7.9-2.464,2.656-2.528.992-.032,2.56-.064,4.064-.064s3.008.032,3.84.064c2.016.064,2.528.992,2.592,2.528.064,1.44.1,3.68.1,6.112Zm13.344,1.6c0,2.944-.032,5.888-.1,7.648-.064,1.792-.768,2.688-2.784,2.752-.832.032-2.336.032-3.808.032-1.44,0-2.88,0-3.616-.032-2.08-.064-2.912-.8-2.976-2.592-.064-1.7-.064-4.736-.064-7.808Zm26.176-7.232c4.576,0,8.544,3.136,8.544,7.616,0,4.832-3.84,7.808-8.16,8.736-.672.128-.96.544-.96.928a.972.972,0,0,0,1.088.9c1.12,0,9.856-2.56,9.856-10.432,0-5.632-4.832-9.152-10.336-9.152C73.184-20.1,68.7-13.888,68.7-8.8c0,3.776,2.5,5.952,4.16,5.952,4.288,0,8.512-12.032,8.512-15.008A.893.893,0,0,0,80.928-18.688Zm-1.056.064a1.1,1.1,0,0,0-.32.8C79.1-12.448,75.136-4.768,72.96-4.768c-1.28,0-2.592-1.984-2.592-4.16A10.369,10.369,0,0,1,79.872-18.624Zm37.664,5.5a20.322,20.322,0,0,0,8.192,4.608.915.915,0,0,0,.864-.928.768.768,0,0,0-.576-.736,20.656,20.656,0,0,1-7.52-4.032c2.176-2.56,3.84-5.632,3.84-7.04,0-1.152-.9-1.7-2.4-1.7h-.1c-1.376,0-2.72.032-4.1.064a19.608,19.608,0,0,0,1.024-2.24.9.9,0,0,0-.9-.768.785.785,0,0,0-.7.544,23.435,23.435,0,0,1-5.984,8.928.715.715,0,0,0-.288.544.777.777,0,0,0,.8.7c.768,0,2.72-2.464,3.648-3.808a14.458,14.458,0,0,0,3.136,4.832,19.087,19.087,0,0,1-6.72,4.512.735.735,0,0,0-.512.7.778.778,0,0,0,.768.768C110.176-8.16,113.76-9.216,117.536-13.12ZM103.456.9a.839.839,0,0,0,.864.864A.822.822,0,0,0,105.184.9L105.12-11.3c1.28-.16,2.4-.32,3.04-.448.128.32.256.608.352.928a.57.57,0,0,0,.576.448.875.875,0,0,0,.864-.832c0-.544-1.856-4.32-2.912-4.32a.705.705,0,0,0-.736.608.688.688,0,0,0,.192.416,13.221,13.221,0,0,1,1.12,1.632l-5.056.544c1.792-2.24,5.7-8.192,5.7-9.024a.912.912,0,0,0-.928-.832.678.678,0,0,0-.672.448,38.173,38.173,0,0,1-2.88,5.408,24.075,24.075,0,0,0-2.208-2.016c1.184-1.7,3.488-6.112,3.488-6.912,0-.48-.512-.768-.96-.768a.7.7,0,0,0-.736.512,25.7,25.7,0,0,1-2.912,6.368l-.768-.48a.852.852,0,0,0-.384-.1.831.831,0,0,0-.8.768.615.615,0,0,0,.288.512,24.566,24.566,0,0,1,4.16,3.392,31.078,31.078,0,0,1-2.24,2.912l-2.144.16c-.288,0-.448.32-.448.64,0,.384.224.8.608.8.128,0,.352-.032,4.832-.576Zm11.552-22.464c1.408,0,3.36-.032,4.384-.064h.128c.768,0,1.088.192,1.088.64A14.131,14.131,0,0,1,117.44-15.2a13.062,13.062,0,0,1-3.2-5.12Zm6.144,23.136a.944.944,0,0,0,.9-.928c0-1.76-7.968-4.608-8.864-4.608a.852.852,0,0,0-.832.864.639.639,0,0,0,.512.64,19.508,19.508,0,0,1,7.744,3.808A.749.749,0,0,0,121.152,1.568ZM99.424-.8A20.723,20.723,0,0,0,101.7-7.616a.825.825,0,0,0-.864-.8.677.677,0,0,0-.736.608,19.146,19.146,0,0,1-2.144,6.272.865.865,0,0,0-.16.512.73.73,0,0,0,.8.672A.933.933,0,0,0,99.424-.8ZM120.1-5.12a.934.934,0,0,0,.864-.9c0-1.248-5.024-3.456-5.344-3.456a.812.812,0,0,0-.8.8.64.64,0,0,0,.416.608,13.869,13.869,0,0,1,4.288,2.688A.928.928,0,0,0,120.1-5.12ZM109.248-2.432a.926.926,0,0,0,.864-.96c0-.48-1.568-5.28-2.912-5.28a.649.649,0,0,0-.7.576.775.775,0,0,0,.128.416,16.647,16.647,0,0,1,1.888,4.512C108.608-2.656,108.928-2.432,109.248-2.432Zm30.208-5.92c1.216-1.088,5.7-4.864,10.624-4.864,3.072,0,5.248,1.6,5.248,3.84,0,2.752-3.072,5.44-7.2,6.912-.64.224-.928.608-.928.992a.97.97,0,0,0,1.024.9c1.152,0,9.024-3.648,9.024-8.832,0-2.912-2.88-5.376-7.072-5.376-4,0-7.552,2.112-10.624,4.544l.16-2.176c.608-1.216,1.088-2.144,1.28-2.464a2.552,2.552,0,0,0,.448-1.312.9.9,0,0,0-.928-.96,1.089,1.089,0,0,0-.32.032c.256-2.336.544-4.352.736-5.728v-.1a.83.83,0,0,0-.9-.768.841.841,0,0,0-.864.8l-.608,6.4c-1.728.7-3.616,1.568-5.024,2.24a.856.856,0,0,0-.512.8.8.8,0,0,0,.768.864,1.326,1.326,0,0,0,.64-.192c.8-.48,3.008-1.632,3.968-2.08l-.192,2.176a61.07,61.07,0,0,1-4.16,7.968c-1.152,1.344-1.472,1.824-1.472,2.272a.922.922,0,0,0,.928.9,1.279,1.279,0,0,0,1.088-.736,20.106,20.106,0,0,1,3.2-4.608c-.1,1.536-.128,2.976-.128,4.224,0,2.656.064,3.616,1.056,3.616A.934.934,0,0,0,139.68,0V-.16a30.517,30.517,0,0,1-.32-4.832Q139.36-6.624,139.456-8.352Zm33.6-11.3a2.122,2.122,0,0,1,.128-.512,22.047,22.047,0,0,0,.928-3.9.847.847,0,0,0-.9-.864.832.832,0,0,0-.864.768c-.256,2.016-.832,4.192-1.216,5.888a31.368,31.368,0,0,0-.736,6.336c0,1.536.128,2.176.992,2.176.512,0,.992-.352.992-1.152v-.128c-.032-.7-.064-1.344-.064-1.92,0-6.208,2.944-7.712,4.672-7.712,3.008,0,3.712,5.056,3.712,7.712A15.542,15.542,0,0,1,173.728.128a1.207,1.207,0,0,0-.672.992.872.872,0,0,0,.928.832,1.534,1.534,0,0,0,.832-.288A17.245,17.245,0,0,0,182.528-12.7c0-3.328-.96-9.44-5.376-9.44a4.519,4.519,0,0,0-3.744,2.08c-.128.192-.288.448-.352.448Zm27.232,20a.93.93,0,0,0,.9-1.024c0-.1-.032-.16-.032-.256v-.16c0-1.664,1.472-4.416,2.272-5.856a.852.852,0,0,0,.1-.384.778.778,0,0,0-.768-.768.7.7,0,0,0-.672.416c-.128.224-1.28,2.432-1.344,2.592-.16.32-.288.544-.384.544-.192,0-.576-.736-.576-3.008,0-3.04.576-6.56,1.792-12.768v-.16a.827.827,0,0,0-.864-.8.883.883,0,0,0-.864.8c-.288,1.952-1.12,5.536-1.5,9.248-.128,1.28-.224,2.592-.224,3.872C198.112-5.44,198.592.352,200.288.352Zm18.144-2.016a1.1,1.1,0,0,0,.9-1.056.868.868,0,0,0-.96-.864,1.435,1.435,0,0,0-.352.032,18.207,18.207,0,0,1-4.128.512,7.315,7.315,0,0,1-5.056-1.568.9.9,0,0,0-.672-.288.862.862,0,0,0-.9.832c0,.864,2.272,2.88,7.1,2.88A17.913,17.913,0,0,0,218.432-1.664Zm-1.184-14.848a.866.866,0,0,0,.864-.9c0-.576-.288-1.28-4.448-1.28a20.59,20.59,0,0,0-5.12.608.865.865,0,0,0-.736.832.882.882,0,0,0,.832.9.406.406,0,0,0,.192-.032,18.06,18.06,0,0,1,4.448-.576,17.423,17.423,0,0,1,3.744.416A.625.625,0,0,0,217.248-16.512ZM234.816-1.088c-.032-1.536-.032-3.2-.032-4.864,0-4.576.064-9.312.064-12.352,0-1.088,0-1.984-.032-2.528-.064-1.7-1.12-2.592-2.944-2.592-.672,0-.928,0-1.568.032a1.053,1.053,0,0,0-1.024,1.056.959.959,0,0,0,1.024.96h.1a6.176,6.176,0,0,1,.736-.032c1.28,0,1.6.384,1.664,1.6.032.512.032,1.7.032,3.3,0,4.544-.1,12.256-.128,15.488v.032a.956.956,0,0,0,1.024.96,1.024,1.024,0,0,0,1.088-1.024Zm24-12.448a1.059,1.059,0,0,0,1.024-1.056c0-.9-2.016-3.936-2.912-5.024A.949.949,0,0,0,256.16-20a.914.914,0,0,0-.928.832.691.691,0,0,0,.192.448,14.13,14.13,0,0,1,2.5,4.448A.928.928,0,0,0,258.816-13.536ZM252.352.352c8.512-3.84,13.376-10.5,15.872-18.752a1.65,1.65,0,0,0,.064-.352,1.058,1.058,0,0,0-1.056-1.024.973.973,0,0,0-.96.832A25.14,25.14,0,0,1,251.424-1.312a1.046,1.046,0,0,0-.672.96.849.849,0,0,0,.9.864A1.492,1.492,0,0,0,252.352.352Zm.448-11.68a1.082,1.082,0,0,0,1.024-1.056c0-.864-3.264-5.056-4.288-5.056a.948.948,0,0,0-.96.864.715.715,0,0,0,.288.544,14.009,14.009,0,0,1,3.1,4.1A1,1,0,0,0,252.8-11.328ZM290.144-.1c-.032-1.152-.032-3.008-.032-5.056,0-3.872.032-8.448.1-10.624,1.472-1.664,2.944-3.488,4.448-5.5a1.177,1.177,0,0,0,.256-.672.917.917,0,0,0-.928-.864,1.1,1.1,0,0,0-.96.576,46.43,46.43,0,0,1-16.256,15.2,1.091,1.091,0,0,0-.608.928.815.815,0,0,0,.864.832,1.977,1.977,0,0,0,.96-.32,50.379,50.379,0,0,0,10.432-8.224v.928c0,3.872-.16,9.984-.192,12.864V0a.869.869,0,0,0,.9.992,1.037,1.037,0,0,0,1.024-1.056ZM328.96-11.232a.855.855,0,0,0,.9-.9.855.855,0,0,0-.9-.9H308.608a.907.907,0,0,0-.928.928.84.84,0,0,0,.928.864ZM349.216-22.88a.889.889,0,0,0-.96-.9.856.856,0,0,0-.928.864v.032c.032,1.44.064,3.648.064,6.176,0,5.728-.1,13.056-.256,16.736V.1a.94.94,0,0,0,.96,1.024,1.031,1.031,0,0,0,1.056-1.152c-.032-2.08-.064-5.44-.064-8.992v-3.9a.455.455,0,0,0,.192.064,23.4,23.4,0,0,1,7.52,2.816.957.957,0,0,0,.608.224.989.989,0,0,0,.9-1.024,1,1,0,0,0-.416-.8c-1.952-1.472-7.456-2.88-8.48-2.88a.934.934,0,0,0-.288.064l.1-8.384Z" transform="translate(-11.872 26.016)" fill="#333"/>
</svg>
