<svg xmlns="http://www.w3.org/2000/svg" width="154.588" height="109.925" viewBox="0 0 154.588 109.925">
  <g transform="translate(-589 340)">
    <path d="M16.771,109.925C7.268,109.925,0,99.878,0,87.863V66.5H.014A34.5,34.5,0,0,1,33.031,33.031a34.5,34.5,0,0,1,68.938,0A34.5,34.5,0,0,1,135,67.5q0,1.242-.087,2.462l19.674,8.34-20.715,31.623Z" transform="translate(589 -340)" fill="#1da1f2"/>
    <path d="M4.1-28.434a.987.987,0,0,0-.984.984v15.124a.967.967,0,0,0,.984.984.967.967,0,0,0,.984-.984V-27.45A.987.987,0,0,0,4.1-28.434Zm0-7.415a.967.967,0,0,0-.984.984v.919a.967.967,0,0,0,.984.984.967.967,0,0,0,.984-.984v-.919A.967.967,0,0,0,4.1-35.849Zm4.1,16.076c0,5.282,3.15,8.858,7.874,8.858a7.384,7.384,0,0,0,5.643-2.428,1.02,1.02,0,0,0-.066-1.411.992.992,0,0,0-1.411.1,5.4,5.4,0,0,1-4.167,1.772c-4.363,0-5.905-3.707-5.905-6.89s1.542-6.89,5.905-6.89a5.44,5.44,0,0,1,4,1.575.951.951,0,0,0,1.378,0,.951.951,0,0,0,0-1.378,7.345,7.345,0,0,0-5.38-2.165C11.355-28.631,8.205-25.055,8.205-19.773Zm26.443-8.2a6.8,6.8,0,0,0-6.89.853.954.954,0,0,0-.131,1.378.954.954,0,0,0,1.378.131A4.853,4.853,0,0,1,33.8-26.2c1.312.623,1.968,1.936,1.968,3.773v10.17a.987.987,0,0,0,.984.984.967.967,0,0,0,.984-.984V-22.43C37.732-25.974,35.8-27.417,34.648-27.975Zm-9.219-8.169a.987.987,0,0,0-.984.984v22.834a.987.987,0,0,0,.984.984.967.967,0,0,0,.984-.984V-35.16A.967.967,0,0,0,25.429-36.144Zm16.929,7.71a.987.987,0,0,0-.984.984v15.124a.967.967,0,0,0,.984.984.967.967,0,0,0,.984-.984V-27.45A.987.987,0,0,0,42.358-28.434Zm0-7.415a.967.967,0,0,0-.984.984v.919a.967.967,0,0,0,.984.984.967.967,0,0,0,.984-.984v-.919A.967.967,0,0,0,42.358-35.849Zm6.3,14.337a.987.987,0,0,0-.984.984.967.967,0,0,0,.984.984h7.251a.967.967,0,0,0,.984-.984.987.987,0,0,0-.984-.984ZM61.387-28.2a.987.987,0,0,0-.984.984.967.967,0,0,0,.984.984h8.53c-1.9,2.526-9.875,13.025-9.875,13.025a.983.983,0,0,0-.2.591.908.908,0,0,0,.1.427.934.934,0,0,0,.886.558h11.45a.967.967,0,0,0,.984-.984.987.987,0,0,0-.984-.984H62.8C64.7-16.1,72.672-26.63,72.672-26.63a.791.791,0,0,0,.23-.591.722.722,0,0,0-.131-.427.977.977,0,0,0-.853-.558Zm13.222,8.366c0,5.315,3.182,8.858,7.874,8.858a9.615,9.615,0,0,0,6.627-2.756.981.981,0,0,0-.066-1.378.951.951,0,0,0-1.378.033,7.733,7.733,0,0,1-5.184,2.133c-4.363,0-5.905-3.707-5.905-6.89,0-3.15,1.444-6.857,5.446-6.857,2.592,0,4.462,1.64,5.118,4.462H78.775a.987.987,0,0,0-.984.984,1.009,1.009,0,0,0,.984.984h9.58a.967.967,0,0,0,.722-.361.913.913,0,0,0,.23-.755c-.525-4.429-3.412-7.283-7.283-7.283C77.594-28.664,74.608-25.121,74.608-19.839ZM92.784-28.5a.967.967,0,0,0-.984.984v15.124a.987.987,0,0,0,.984.984,1.009,1.009,0,0,0,.984-.984V-27.516A.987.987,0,0,0,92.784-28.5Zm9.219.427a6.8,6.8,0,0,0-6.89.853.986.986,0,0,0-.164,1.378.99.99,0,0,0,1.378.164,4.843,4.843,0,0,1,4.823-.623c1.28.623,1.968,1.936,1.968,3.806v10.17a.987.987,0,0,0,.984.984,1.009,1.009,0,0,0,.984-.984V-22.5C105.087-26.039,103.151-27.516,102-28.073Z" transform="translate(605 -248.893)" fill="#fff"/>
  </g>
</svg>
